<svg width="560" height="760" viewBox="0 0 560 760" fill="none" xmlns="http://www.w3.org/2000/svg">
  <defs>
    <linearGradient id="body" x1="280" y1="170" x2="280" y2="610" gradientUnits="userSpaceOnUse">
      <stop stop-color="#41525E"/>
      <stop offset="1" stop-color="#182028"/>
    </linearGradient>
    <linearGradient id="limb" x1="0" y1="0" x2="1" y2="1">
      <stop stop-color="#5E7381"/>
      <stop offset="1" stop-color="#1C252D"/>
    </linearGradient>
  </defs>

  <ellipse cx="280" cy="740" rx="120" ry="18" fill="#DDE6ED"/>

  <rect x="222" y="56" width="116" height="138" rx="58" fill="url(#body)"/>
  <rect x="246" y="83" width="68" height="62" rx="31" fill="#0F1419"/>
  <rect x="254" y="108" width="18" height="6" rx="3" fill="#7CA7BF"/>
  <rect x="288" y="108" width="18" height="6" rx="3" fill="#7CA7BF"/>

  <rect x="272" y="186" width="16" height="28" rx="8" fill="#2A353E"/>

  <rect x="190" y="214" width="180" height="238" rx="82" fill="url(#body)"/>
  <rect x="225" y="276" width="110" height="98" rx="20" fill="#11181F" opacity="0.25"/>

  <rect x="112" y="248" width="78" height="186" rx="38" fill="url(#limb)"/>
  <rect x="370" y="248" width="78" height="186" rx="38" fill="url(#limb)"/>

  <rect x="90" y="418" width="70" height="168" rx="30" fill="url(#limb)"/>
  <rect x="400" y="418" width="70" height="168" rx="30" fill="url(#limb)"/>

  <rect x="156" y="574" width="72" height="170" rx="30" fill="url(#limb)"/>
  <rect x="332" y="574" width="72" height="170" rx="30" fill="url(#limb)"/>

  <rect x="154" y="456" width="78" height="60" rx="18" fill="#111820"/>
  <rect x="328" y="456" width="78" height="60" rx="18" fill="#111820"/>

  <circle cx="194" cy="544" r="18" fill="#0F151B"/>
  <circle cx="366" cy="544" r="18" fill="#0F151B"/>
</svg>
